<mxfile host="Electron" modified="2024-09-24T12:46:13.750Z" agent="Mozilla/5.0 (Windows NT 10.0; Win64; x64) AppleWebKit/537.36 (KHTML, like Gecko) draw.io/22.0.3 Chrome/114.0.5735.289 Electron/25.8.4 Safari/537.36" etag="VOyOQ4Xv0NNFtGUlWWVT" version="22.0.3" type="device">
  <diagram name="Page-1" id="p23tiUGc3Y_hyL8HL6yh">
    <mxGraphModel dx="1901" dy="1113" grid="0" gridSize="10" guides="0" tooltips="1" connect="1" arrows="1" fold="1" page="0" pageScale="1" pageWidth="850" pageHeight="1100" math="0" shadow="0">
      <root>
        <mxCell id="0" />
        <mxCell id="1" parent="0" />
        <mxCell id="HiUifwRExWOaTd-DCfyb-1" value="&lt;span style=&quot;font-size: 18px;&quot;&gt;&lt;b&gt;Test Image&lt;/b&gt;&lt;/span&gt;" style="rounded=1;whiteSpace=wrap;html=1;strokeWidth=2;" parent="1" vertex="1">
          <mxGeometry x="-71" y="283" width="113" height="51" as="geometry" />
        </mxCell>
        <mxCell id="HiUifwRExWOaTd-DCfyb-86" value="&lt;span style=&quot;font-size: 18px;&quot;&gt;Combined Features&lt;/span&gt;" style="rounded=1;whiteSpace=wrap;html=1;fontStyle=1;strokeWidth=2;" parent="1" vertex="1">
          <mxGeometry x="635" y="404" width="182" height="58" as="geometry" />
        </mxCell>
        <mxCell id="HiUifwRExWOaTd-DCfyb-58" value="&lt;span style=&quot;font-size: 18px;&quot;&gt;One-hot encoded form&lt;/span&gt;" style="rounded=1;whiteSpace=wrap;html=1;fontStyle=1;strokeWidth=2;" parent="1" vertex="1">
          <mxGeometry x="660" y="156" width="133" height="62.5" as="geometry" />
        </mxCell>
        <mxCell id="HiUifwRExWOaTd-DCfyb-59" value="" style="endArrow=classic;html=1;rounded=0;entryX=0;entryY=0.5;entryDx=0;entryDy=0;exitX=1;exitY=0.5;exitDx=0;exitDy=0;strokeWidth=2;" parent="1" source="HiUifwRExWOaTd-DCfyb-26" target="HiUifwRExWOaTd-DCfyb-58" edge="1">
          <mxGeometry width="50" height="50" relative="1" as="geometry">
            <mxPoint x="491" y="201" as="sourcePoint" />
            <mxPoint x="541" y="151" as="targetPoint" />
          </mxGeometry>
        </mxCell>
        <mxCell id="HiUifwRExWOaTd-DCfyb-91" value="" style="endArrow=none;html=1;rounded=0;exitX=0.5;exitY=0;exitDx=0;exitDy=0;strokeWidth=2;" parent="1" source="HiUifwRExWOaTd-DCfyb-26" edge="1">
          <mxGeometry width="50" height="50" relative="1" as="geometry">
            <mxPoint x="394" y="247" as="sourcePoint" />
            <mxPoint x="513" y="2" as="targetPoint" />
          </mxGeometry>
        </mxCell>
        <mxCell id="HiUifwRExWOaTd-DCfyb-54" value="" style="group;strokeWidth=2;" parent="1" vertex="1" connectable="0">
          <mxGeometry x="364" y="-26" width="295" height="127" as="geometry" />
        </mxCell>
        <mxCell id="HiUifwRExWOaTd-DCfyb-34" value="&lt;span style=&quot;font-size: 18px;&quot;&gt;Alluvial Soil&lt;/span&gt;" style="rounded=1;whiteSpace=wrap;html=1;rotation=0;fontStyle=1;strokeWidth=2;" parent="HiUifwRExWOaTd-DCfyb-54" vertex="1">
          <mxGeometry width="104.42477876106196" height="51" as="geometry" />
        </mxCell>
        <mxCell id="HiUifwRExWOaTd-DCfyb-38" value="&lt;span style=&quot;font-size: 18px;&quot;&gt;Clay Soil&lt;/span&gt;" style="rounded=1;whiteSpace=wrap;html=1;rotation=0;fontStyle=1;strokeWidth=2;" parent="HiUifwRExWOaTd-DCfyb-54" vertex="1">
          <mxGeometry x="190.5752212389381" width="104.42477876106196" height="51" as="geometry" />
        </mxCell>
        <mxCell id="HiUifwRExWOaTd-DCfyb-53" value="" style="endArrow=classic;startArrow=classic;html=1;rounded=0;exitX=1;exitY=0.5;exitDx=0;exitDy=0;entryX=0;entryY=0.5;entryDx=0;entryDy=0;strokeWidth=2;" parent="HiUifwRExWOaTd-DCfyb-54" source="HiUifwRExWOaTd-DCfyb-34" target="HiUifwRExWOaTd-DCfyb-38" edge="1">
          <mxGeometry width="50" height="50" relative="1" as="geometry">
            <mxPoint x="128.79056047197642" y="-19" as="sourcePoint" />
            <mxPoint x="172.30088495575225" y="-69" as="targetPoint" />
          </mxGeometry>
        </mxCell>
        <mxCell id="HiUifwRExWOaTd-DCfyb-49" value="&lt;span style=&quot;font-size: 18px;&quot;&gt;Black Soil&lt;/span&gt;" style="rounded=1;whiteSpace=wrap;html=1;rotation=0;fontStyle=1;strokeWidth=2;" parent="HiUifwRExWOaTd-DCfyb-54" vertex="1">
          <mxGeometry y="76" width="104.42477876106196" height="51" as="geometry" />
        </mxCell>
        <mxCell id="HiUifwRExWOaTd-DCfyb-50" value="&lt;span style=&quot;font-size: 18px;&quot;&gt;Red Soil&lt;/span&gt;" style="rounded=1;whiteSpace=wrap;html=1;rotation=0;fontStyle=1;strokeWidth=2;" parent="HiUifwRExWOaTd-DCfyb-54" vertex="1">
          <mxGeometry x="190.5752212389381" y="76" width="104.42477876106196" height="51" as="geometry" />
        </mxCell>
        <mxCell id="HiUifwRExWOaTd-DCfyb-56" value="" style="endArrow=classic;startArrow=classic;html=1;rounded=0;exitX=1;exitY=0.5;exitDx=0;exitDy=0;entryX=0;entryY=0.5;entryDx=0;entryDy=0;strokeWidth=2;" parent="HiUifwRExWOaTd-DCfyb-54" source="HiUifwRExWOaTd-DCfyb-49" target="HiUifwRExWOaTd-DCfyb-50" edge="1">
          <mxGeometry width="50" height="50" relative="1" as="geometry">
            <mxPoint x="125.30973451327435" y="44" as="sourcePoint" />
            <mxPoint x="168.82005899705015" y="-6" as="targetPoint" />
          </mxGeometry>
        </mxCell>
        <mxCell id="HiUifwRExWOaTd-DCfyb-93" value="" style="endArrow=classic;html=1;rounded=0;exitX=0.5;exitY=1;exitDx=0;exitDy=0;entryX=0;entryY=0.5;entryDx=0;entryDy=0;strokeWidth=2;" parent="1" source="HiUifwRExWOaTd-DCfyb-1" target="HiUifwRExWOaTd-DCfyb-61" edge="1">
          <mxGeometry width="50" height="50" relative="1" as="geometry">
            <mxPoint x="394" y="447" as="sourcePoint" />
            <mxPoint x="444" y="397" as="targetPoint" />
            <Array as="points">
              <mxPoint x="-13" y="435" />
            </Array>
          </mxGeometry>
        </mxCell>
        <mxCell id="HiUifwRExWOaTd-DCfyb-94" value="" style="endArrow=classic;html=1;rounded=0;exitX=1;exitY=0.5;exitDx=0;exitDy=0;entryX=0;entryY=0.5;entryDx=0;entryDy=0;strokeWidth=2;" parent="1" source="HiUifwRExWOaTd-DCfyb-84" target="HiUifwRExWOaTd-DCfyb-86" edge="1">
          <mxGeometry width="50" height="50" relative="1" as="geometry">
            <mxPoint x="394" y="447" as="sourcePoint" />
            <mxPoint x="634" y="444" as="targetPoint" />
          </mxGeometry>
        </mxCell>
        <mxCell id="HiUifwRExWOaTd-DCfyb-95" value="" style="endArrow=classic;html=1;rounded=0;exitX=0.5;exitY=1;exitDx=0;exitDy=0;entryX=0.5;entryY=0;entryDx=0;entryDy=0;strokeWidth=2;" parent="1" source="HiUifwRExWOaTd-DCfyb-58" target="HiUifwRExWOaTd-DCfyb-86" edge="1">
          <mxGeometry width="50" height="50" relative="1" as="geometry">
            <mxPoint x="401" y="445" as="sourcePoint" />
            <mxPoint x="722" y="412" as="targetPoint" />
          </mxGeometry>
        </mxCell>
        <mxCell id="HiUifwRExWOaTd-DCfyb-97" value="&lt;span style=&quot;font-size: 18px;&quot;&gt;Random Forest Block&lt;/span&gt;" style="rounded=1;whiteSpace=wrap;html=1;fontStyle=1;strokeWidth=2;" parent="1" vertex="1">
          <mxGeometry x="866" y="405" width="150" height="58" as="geometry" />
        </mxCell>
        <mxCell id="HiUifwRExWOaTd-DCfyb-98" value="" style="endArrow=classic;html=1;rounded=0;exitX=1;exitY=0.5;exitDx=0;exitDy=0;entryX=0;entryY=0.5;entryDx=0;entryDy=0;strokeWidth=2;" parent="1" source="HiUifwRExWOaTd-DCfyb-86" target="HiUifwRExWOaTd-DCfyb-97" edge="1">
          <mxGeometry width="50" height="50" relative="1" as="geometry">
            <mxPoint x="664" y="347" as="sourcePoint" />
            <mxPoint x="714" y="297" as="targetPoint" />
          </mxGeometry>
        </mxCell>
        <mxCell id="HiUifwRExWOaTd-DCfyb-99" value="&lt;span style=&quot;font-size: 18px;&quot;&gt;Suggest Crop&lt;/span&gt;" style="rounded=1;whiteSpace=wrap;html=1;fontStyle=1;strokeWidth=2;" parent="1" vertex="1">
          <mxGeometry x="866" y="260" width="150" height="58" as="geometry" />
        </mxCell>
        <mxCell id="HiUifwRExWOaTd-DCfyb-101" value="" style="endArrow=classic;html=1;rounded=0;entryX=0.5;entryY=1;entryDx=0;entryDy=0;exitX=0.5;exitY=0;exitDx=0;exitDy=0;strokeWidth=2;" parent="1" source="HiUifwRExWOaTd-DCfyb-97" target="HiUifwRExWOaTd-DCfyb-99" edge="1">
          <mxGeometry width="50" height="50" relative="1" as="geometry">
            <mxPoint x="1054" y="471" as="sourcePoint" />
            <mxPoint x="897" y="445" as="targetPoint" />
          </mxGeometry>
        </mxCell>
        <mxCell id="HiUifwRExWOaTd-DCfyb-2" value="&lt;span style=&quot;font-size: 18px;&quot;&gt;&lt;b&gt;Preprocess&lt;/b&gt;&lt;/span&gt;" style="rounded=1;whiteSpace=wrap;html=1;strokeWidth=2;" parent="1" vertex="1">
          <mxGeometry x="77" y="110" width="120" height="51" as="geometry" />
        </mxCell>
        <mxCell id="HiUifwRExWOaTd-DCfyb-5" value="&lt;span style=&quot;font-size: 18px;&quot;&gt;&lt;b&gt;Layer segmentation&lt;/b&gt;&lt;/span&gt;" style="rounded=1;whiteSpace=wrap;html=1;strokeWidth=2;" parent="1" vertex="1">
          <mxGeometry x="75.5" y="211" width="129" height="55" as="geometry" />
        </mxCell>
        <mxCell id="HiUifwRExWOaTd-DCfyb-8" value="" style="endArrow=none;html=1;rounded=0;strokeWidth=2;" parent="1" edge="1">
          <mxGeometry width="50" height="50" relative="1" as="geometry">
            <mxPoint x="38" y="238" as="sourcePoint" />
            <mxPoint x="38" y="136" as="targetPoint" />
          </mxGeometry>
        </mxCell>
        <mxCell id="HiUifwRExWOaTd-DCfyb-9" value="" style="endArrow=classic;html=1;rounded=0;entryX=0;entryY=0.5;entryDx=0;entryDy=0;strokeWidth=2;" parent="1" target="HiUifwRExWOaTd-DCfyb-2" edge="1">
          <mxGeometry width="50" height="50" relative="1" as="geometry">
            <mxPoint x="38" y="136" as="sourcePoint" />
            <mxPoint x="339" y="162" as="targetPoint" />
          </mxGeometry>
        </mxCell>
        <mxCell id="HiUifwRExWOaTd-DCfyb-12" value="" style="endArrow=classic;html=1;rounded=0;entryX=0;entryY=0.5;entryDx=0;entryDy=0;strokeWidth=2;" parent="1" target="HiUifwRExWOaTd-DCfyb-5" edge="1">
          <mxGeometry width="50" height="50" relative="1" as="geometry">
            <mxPoint x="36" y="239" as="sourcePoint" />
            <mxPoint x="86" y="272" as="targetPoint" />
          </mxGeometry>
        </mxCell>
        <mxCell id="HiUifwRExWOaTd-DCfyb-18" value="" style="endArrow=none;html=1;rounded=0;strokeWidth=2;" parent="1" edge="1">
          <mxGeometry width="50" height="50" relative="1" as="geometry">
            <mxPoint x="222" y="237" as="sourcePoint" />
            <mxPoint x="222" y="135" as="targetPoint" />
          </mxGeometry>
        </mxCell>
        <mxCell id="HiUifwRExWOaTd-DCfyb-21" value="" style="endArrow=none;html=1;rounded=0;exitX=1;exitY=0.5;exitDx=0;exitDy=0;strokeWidth=2;" parent="1" source="HiUifwRExWOaTd-DCfyb-2" edge="1">
          <mxGeometry width="50" height="50" relative="1" as="geometry">
            <mxPoint x="207" y="187" as="sourcePoint" />
            <mxPoint x="224" y="136" as="targetPoint" />
          </mxGeometry>
        </mxCell>
        <mxCell id="HiUifwRExWOaTd-DCfyb-22" value="&lt;span style=&quot;font-size: 18px;&quot;&gt;&lt;b&gt;Swin Transformer Block&lt;/b&gt;&lt;/span&gt;" style="rounded=1;whiteSpace=wrap;html=1;strokeWidth=2;" parent="1" vertex="1">
          <mxGeometry x="252" y="157" width="163" height="62.5" as="geometry" />
        </mxCell>
        <mxCell id="HiUifwRExWOaTd-DCfyb-23" value="" style="endArrow=none;html=1;rounded=0;exitX=1;exitY=0.5;exitDx=0;exitDy=0;strokeWidth=2;" parent="1" source="HiUifwRExWOaTd-DCfyb-5" edge="1">
          <mxGeometry width="50" height="50" relative="1" as="geometry">
            <mxPoint x="204" y="236" as="sourcePoint" />
            <mxPoint x="224" y="238" as="targetPoint" />
          </mxGeometry>
        </mxCell>
        <mxCell id="HiUifwRExWOaTd-DCfyb-24" value="" style="endArrow=classic;html=1;rounded=0;entryX=0;entryY=0.5;entryDx=0;entryDy=0;strokeWidth=2;" parent="1" target="HiUifwRExWOaTd-DCfyb-22" edge="1">
          <mxGeometry width="50" height="50" relative="1" as="geometry">
            <mxPoint x="220" y="188" as="sourcePoint" />
            <mxPoint x="90" y="146" as="targetPoint" />
          </mxGeometry>
        </mxCell>
        <mxCell id="HiUifwRExWOaTd-DCfyb-26" value="&lt;span style=&quot;font-size: 18px;&quot;&gt;Soil Type Classification&lt;/span&gt;" style="rounded=1;whiteSpace=wrap;html=1;fontStyle=1;strokeWidth=2;" parent="1" vertex="1">
          <mxGeometry x="446" y="157.25" width="133" height="62.5" as="geometry" />
        </mxCell>
        <mxCell id="HiUifwRExWOaTd-DCfyb-27" value="" style="endArrow=classic;html=1;rounded=0;entryX=0;entryY=0.5;entryDx=0;entryDy=0;exitX=1;exitY=0.5;exitDx=0;exitDy=0;strokeWidth=2;" parent="1" source="HiUifwRExWOaTd-DCfyb-22" target="HiUifwRExWOaTd-DCfyb-26" edge="1">
          <mxGeometry width="50" height="50" relative="1" as="geometry">
            <mxPoint x="340" y="201" as="sourcePoint" />
            <mxPoint x="390" y="151" as="targetPoint" />
          </mxGeometry>
        </mxCell>
        <mxCell id="HiUifwRExWOaTd-DCfyb-85" value="" style="group;strokeWidth=2;" parent="1" vertex="1" connectable="0">
          <mxGeometry x="311" y="303" width="173" height="263" as="geometry" />
        </mxCell>
        <mxCell id="HiUifwRExWOaTd-DCfyb-84" value="" style="rounded=0;whiteSpace=wrap;html=1;strokeWidth=2;" parent="HiUifwRExWOaTd-DCfyb-85" vertex="1">
          <mxGeometry width="173" height="263" as="geometry" />
        </mxCell>
        <mxCell id="HiUifwRExWOaTd-DCfyb-62" value="&lt;span style=&quot;font-size: 18px;&quot;&gt;GLCM Contrast&lt;/span&gt;" style="rounded=1;whiteSpace=wrap;html=1;fontStyle=1;strokeWidth=2;" parent="HiUifwRExWOaTd-DCfyb-85" vertex="1">
          <mxGeometry x="14" y="17" width="142" height="46" as="geometry" />
        </mxCell>
        <mxCell id="HiUifwRExWOaTd-DCfyb-63" value="&lt;span style=&quot;font-size: 18px;&quot;&gt;Wavelet Energy&lt;/span&gt;" style="rounded=1;whiteSpace=wrap;html=1;fontStyle=1;strokeWidth=2;" parent="HiUifwRExWOaTd-DCfyb-85" vertex="1">
          <mxGeometry x="15" y="78" width="142" height="46" as="geometry" />
        </mxCell>
        <mxCell id="HiUifwRExWOaTd-DCfyb-65" value="&lt;span style=&quot;font-size: 18px;&quot;&gt;RGB Mean&lt;/span&gt;" style="rounded=1;whiteSpace=wrap;html=1;fontStyle=1;strokeWidth=2;" parent="HiUifwRExWOaTd-DCfyb-85" vertex="1">
          <mxGeometry x="16" y="199" width="142" height="46" as="geometry" />
        </mxCell>
        <mxCell id="HiUifwRExWOaTd-DCfyb-67" value="&lt;span style=&quot;font-size: 18px;&quot;&gt;Entropy&lt;/span&gt;" style="rounded=1;whiteSpace=wrap;html=1;fontStyle=1;strokeWidth=2;" parent="HiUifwRExWOaTd-DCfyb-85" vertex="1">
          <mxGeometry x="15" y="139" width="142" height="46" as="geometry" />
        </mxCell>
        <mxCell id="HiUifwRExWOaTd-DCfyb-103" value="" style="endArrow=classic;html=1;rounded=0;exitX=1;exitY=0.5;exitDx=0;exitDy=0;entryX=0;entryY=0.5;entryDx=0;entryDy=0;strokeWidth=2;" parent="1" source="HiUifwRExWOaTd-DCfyb-61" target="HiUifwRExWOaTd-DCfyb-84" edge="1">
          <mxGeometry width="50" height="50" relative="1" as="geometry">
            <mxPoint x="518" y="319" as="sourcePoint" />
            <mxPoint x="568" y="269" as="targetPoint" />
          </mxGeometry>
        </mxCell>
        <mxCell id="HiUifwRExWOaTd-DCfyb-61" value="&lt;span style=&quot;font-size: 18px;&quot;&gt;&lt;b&gt;Feature extraction&lt;/b&gt;&lt;/span&gt;" style="rounded=1;whiteSpace=wrap;html=1;strokeWidth=2;" parent="1" vertex="1">
          <mxGeometry x="74" y="403.25" width="110" height="62.5" as="geometry" />
        </mxCell>
        <mxCell id="HiUifwRExWOaTd-DCfyb-104" value="" style="endArrow=classic;html=1;rounded=0;exitX=0.5;exitY=0;exitDx=0;exitDy=0;strokeWidth=2;" parent="1" source="HiUifwRExWOaTd-DCfyb-1" edge="1">
          <mxGeometry width="50" height="50" relative="1" as="geometry">
            <mxPoint x="390" y="319" as="sourcePoint" />
            <mxPoint x="38" y="189" as="targetPoint" />
            <Array as="points">
              <mxPoint x="-15" y="189" />
            </Array>
          </mxGeometry>
        </mxCell>
        <mxCell id="cFUtzapEiZ65AKCpyUtL-2" value="" style="endArrow=classic;html=1;rounded=0;entryX=0;entryY=0.5;entryDx=0;entryDy=0;exitX=1;exitY=0.5;exitDx=0;exitDy=0;strokeWidth=2;" edge="1" parent="1" source="cFUtzapEiZ65AKCpyUtL-4" target="HiUifwRExWOaTd-DCfyb-1">
          <mxGeometry width="50" height="50" relative="1" as="geometry">
            <mxPoint x="-190" y="312" as="sourcePoint" />
            <mxPoint x="-104" y="299" as="targetPoint" />
          </mxGeometry>
        </mxCell>
        <mxCell id="cFUtzapEiZ65AKCpyUtL-4" value="&lt;span style=&quot;font-size: 18px;&quot;&gt;&lt;b&gt;Input&lt;/b&gt;&lt;/span&gt;" style="rounded=1;whiteSpace=wrap;html=1;strokeWidth=2;" vertex="1" parent="1">
          <mxGeometry x="-194" y="283" width="84" height="51" as="geometry" />
        </mxCell>
      </root>
    </mxGraphModel>
  </diagram>
</mxfile>
